<?xml version="1.0" standalone="no"?>
<!DOCTYPE svg PUBLIC "-//W3C//DTD SVG 20010904//EN"
 "http://www.w3.org/TR/2001/REC-SVG-20010904/DTD/svg10.dtd">
<svg version="1.0" xmlns="http://www.w3.org/2000/svg"
 width="300.000000pt" height="340.000000pt" viewBox="0 0 300.000000 340.000000"
 preserveAspectRatio="xMidYMid meet">
<metadata>
Created by potrace 1.10, written by Peter Selinger 2001-2011
</metadata>
<g transform="translate(0.000000,340.000000) scale(0.100000,-0.100000)"
fill="#05FF00" stroke="none">
<path d="M1433 3234 c-7 -7 -13 -20 -13 -29 0 -8 -5 -15 -11 -15 -5 0 -7 -4
-4 -10 3 -5 15 -10 26 -10 11 0 22 -7 25 -15 4 -8 10 -15 16 -15 5 0 6 5 3 10
-4 6 7 10 24 10 17 0 39 8 49 18 10 10 27 22 38 27 18 8 17 9 -4 13 -16 2 -31
-5 -47 -22 -28 -30 -42 -33 -48 -8 -4 16 -5 16 -6 0 -1 -21 -31 -24 -31 -4 0
8 -6 16 -12 19 -10 3 -10 8 1 21 17 20 11 30 -6 10z"/>
<path d="M1370 3214 c0 -21 -27 -47 -40 -39 -6 4 -17 1 -25 -5 -12 -10 -15 -9
-15 5 0 10 -6 15 -17 13 -10 -2 -17 -10 -16 -19 2 -8 -6 -20 -17 -27 -17 -10
-20 -10 -21 5 0 11 -3 13 -6 5 -2 -6 -9 -10 -14 -6 -5 3 -9 -2 -9 -10 0 -9 11
-18 25 -22 14 -3 25 -12 25 -20 0 -8 9 -14 20 -14 11 0 20 5 20 11 0 5 -4 8
-9 5 -14 -9 -23 27 -9 36 39 26 50 29 64 17 8 -6 14 -8 14 -3 0 5 14 17 30 26
32 18 39 42 15 52 -9 3 -15 0 -15 -10z"/>
<path d="M1903 3213 c-14 -5 -18 -34 -5 -32 28 5 40 -2 35 -22 -4 -13 2 -27
15 -40 31 -28 36 -23 11 12 -17 24 -18 30 -6 27 16 -3 19 6 10 29 -3 7 -10 10
-16 6 -5 -3 -15 1 -21 9 -6 8 -17 13 -23 11z"/>
<path d="M1992 3168 c-15 -15 -15 -28 -1 -28 15 0 49 -39 49 -55 0 -7 17 -25
38 -40 20 -16 31 -22 25 -15 -7 8 -13 23 -13 35 0 14 -3 16 -9 7 -6 -10 -12
-7 -25 12 -15 23 -15 26 -1 26 9 0 13 -4 10 -10 -3 -5 1 -10 9 -10 24 0 88
-72 76 -84 -6 -6 -10 -17 -10 -25 1 -13 2 -13 11 2 5 9 19 17 29 17 24 0 25 6
4 28 -15 15 -15 16 2 23 15 6 14 8 -8 8 -16 1 -28 5 -28 10 0 5 -8 12 -17 15
-10 3 -26 20 -36 37 -17 31 -18 31 -37 14 -17 -15 -20 -15 -20 -3 0 8 -8 22
-18 31 -14 13 -21 14 -30 5z"/>
<path d="M2147 3163 c-4 -3 -7 -11 -7 -17 0 -6 4 -5 9 2 6 11 11 10 25 -3 9
-9 16 -25 16 -36 0 -18 10 -23 38 -20 6 1 12 -3 12 -9 0 -5 -5 -10 -11 -10 -6
0 -9 -6 -6 -14 3 -8 1 -17 -6 -20 -7 -2 -4 -5 6 -5 9 -1 17 4 17 9 0 6 6 10
14 10 26 0 5 39 -42 80 -46 41 -54 45 -65 33z"/>
<path d="M2257 3033 c-13 -12 -7 -26 6 -15 15 13 42 -1 33 -17 -5 -7 3 -11 20
-11 l27 0 -23 25 c-23 24 -50 32 -63 18z"/>
<path d="M2176 2975 c4 -8 11 -15 18 -15 6 0 18 -9 26 -20 8 -11 19 -20 25
-20 14 -1 75 -57 75 -70 0 -5 5 -10 11 -10 14 0 59 -47 59 -62 0 -6 -8 -17
-17 -24 -17 -12 -17 -13 -1 -14 9 0 19 4 23 10 9 15 34 0 32 -21 -1 -22 -17
-25 -36 -6 -11 10 -12 8 -6 -13 4 -13 14 -30 21 -38 8 -7 14 -32 14 -54 0 -40
0 -41 20 -23 19 18 20 17 20 -3 0 -12 -4 -22 -10 -22 -5 0 -10 -7 -10 -16 0
-11 -5 -14 -16 -10 -12 5 -15 2 -10 -10 3 -8 6 -17 6 -20 0 -2 7 -1 16 3 9 3
20 0 24 -7 4 -7 13 -9 20 -5 10 6 9 11 -4 21 -11 8 -13 14 -7 19 13 8 14 48 2
61 -5 5 -12 29 -15 54 -4 40 -11 75 -16 90 -1 3 -2 8 -1 13 0 4 -5 7 -13 7 -9
0 -13 7 -11 20 2 11 0 20 -4 20 -13 0 -61 48 -61 61 0 7 -3 10 -6 7 -7 -8 -42
25 -37 35 2 4 -1 7 -8 7 -6 0 -25 16 -42 35 -27 32 -57 50 -42 25 3 -5 2 -10
-4 -10 -5 0 -13 5 -16 10 -10 16 -25 12 -19 -5z"/>
<path d="M1925 2960 c-3 -6 1 -13 9 -16 9 -3 16 -13 16 -21 0 -8 5 -23 11 -34
8 -16 13 -18 25 -8 21 17 17 31 -6 24 -11 -4 -20 -2 -20 4 0 10 14 15 33 12 5
-1 7 4 5 10 -2 7 -13 14 -23 15 -11 2 -21 8 -23 13 -5 14 -19 14 -27 1z"/>
<path d="M921 2899 c-12 -19 -26 -50 -32 -69 -7 -19 -22 -55 -34 -80 -12 -25
-20 -51 -17 -59 2 -8 0 -11 -5 -8 -14 9 -34 -39 -26 -60 4 -10 3 -14 -5 -9
-20 12 -32 -67 -33 -220 0 -86 -5 -156 -11 -168 -8 -15 -8 -21 1 -24 6 -2 11
-8 11 -14 0 -6 -6 -8 -14 -5 -8 3 -17 -1 -20 -10 -4 -11 -2 -14 9 -9 17 6 22
-29 5 -39 -5 -3 -10 1 -10 9 0 9 -6 16 -13 16 -8 0 -14 -7 -14 -15 0 -8 5 -11
10 -8 6 4 8 -3 3 -18 -3 -13 -10 -46 -13 -74 -7 -46 -8 -48 -14 -20 -6 29 -7
29 -8 -7 0 -21 4 -38 9 -38 6 0 10 -8 10 -17 0 -15 -2 -16 -10 -3 -7 11 -9 2
-9 -30 1 -37 2 -41 9 -20 9 28 11 26 15 -10 15 -157 56 -290 88 -290 9 0 9 2
-1 9 -7 4 -17 37 -22 72 -5 35 -14 98 -21 139 -7 41 -14 114 -15 162 -1 48 -5
92 -9 98 -9 14 27 12 47 -3 14 -11 16 -30 13 -130 -2 -72 0 -115 6 -112 5 4 9
21 10 38 l1 32 11 -30 c23 -57 48 -83 105 -107 49 -20 74 -23 177 -23 100 0
124 3 147 18 31 21 91 111 95 142 4 33 31 146 36 152 7 7 145 5 168 -2 16 -5
19 -17 19 -70 0 -35 1 -69 3 -77 2 -7 -1 -3 -7 10 -9 19 -26 31 -26 17 0 -19
51 -113 64 -118 12 -5 15 -13 11 -27 -4 -13 2 -36 18 -63 39 -66 47 -109 30
-146 -18 -36 -33 -39 -58 -11 -25 28 -55 25 -106 -10 -54 -36 -94 -39 -110 -7
-14 28 -49 57 -69 57 -8 0 -27 -7 -43 -15 -26 -13 -28 -12 -43 10 -15 23 -15
28 5 66 12 22 35 52 52 66 41 35 29 41 -15 8 -46 -35 -80 -104 -67 -136 5 -13
18 -33 30 -44 18 -16 25 -17 42 -7 27 17 69 5 101 -29 33 -35 50 -36 107 -4
51 30 64 31 101 8 62 -36 122 36 99 120 -6 23 -19 53 -28 67 -33 47 -37 57
-15 39 32 -27 66 -42 129 -55 124 -27 252 -9 307 44 34 32 65 111 75 194 7 56
11 63 32 66 13 2 27 0 31 -5 16 -17 -19 -239 -59 -377 -23 -77 -41 -146 -41
-153 0 -8 -7 -25 -16 -38 -9 -14 -14 -34 -11 -45 7 -28 -40 -180 -64 -206 -10
-11 -19 -28 -19 -38 0 -28 -160 -177 -248 -229 -44 -27 -113 -60 -153 -74 -62
-21 -86 -24 -169 -21 -90 3 -102 6 -174 43 -43 22 -82 48 -87 57 -5 10 -16 15
-24 12 -9 -4 -15 0 -15 10 0 21 -36 21 -44 0 -3 -8 -10 -12 -16 -9 -5 3 -10 1
-10 -4 0 -6 -5 -11 -11 -11 -7 0 -10 17 -7 45 5 72 -10 36 -18 -40 -4 -38 -11
-72 -15 -75 -8 -5 -16 -36 -18 -66 -1 -6 -19 -21 -41 -33 -34 -19 -46 -21 -70
-13 -24 9 -28 8 -23 -4 3 -8 13 -14 22 -15 13 0 13 -2 -3 -12 -11 -7 -41 -31
-67 -55 -33 -30 -52 -40 -64 -35 -15 5 -17 3 -12 -11 4 -10 3 -15 -3 -11 -6 3
-10 1 -10 -4 0 -6 -15 -11 -32 -12 -18 0 -28 -3 -21 -5 7 -3 9 -12 6 -20 -6
-17 -43 -19 -43 -1 0 8 -3 8 -8 2 -4 -6 -27 -17 -52 -24 -63 -19 -160 -64
-190 -89 -23 -20 -20 -19 29 4 29 14 79 34 110 46 31 11 61 24 66 27 6 4 34 6
63 6 52 0 54 1 125 70 83 81 141 122 226 161 32 15 58 11 32 -5 -7 -5 -11 -12
-9 -17 3 -8 -106 -71 -154 -90 -10 -3 -51 -46 -93 -95 l-76 -88 38 -16 c21 -9
50 -28 66 -42 23 -23 26 -33 21 -62 -3 -20 -10 -46 -16 -58 -8 -16 -8 -26 0
-35 6 -8 8 -33 5 -61 l-6 -48 -42 43 c-23 24 -65 55 -93 68 -42 21 -50 29 -45
45 3 11 6 36 7 55 1 27 5 35 19 34 9 -1 17 4 17 11 0 7 7 16 16 19 12 5 14 1
9 -17 -5 -19 -4 -20 5 -5 8 14 7 26 -6 53 -15 31 -34 39 -34 14 0 -6 5 -7 10
-4 13 8 13 -15 0 -35 -7 -12 -33 -15 -125 -15 -91 0 -118 -3 -125 -15 -5 -8
-8 -15 -7 -16 1 -1 29 2 61 7 35 4 66 4 75 -1 12 -7 8 -9 -16 -10 -18 0 -33
-4 -33 -10 0 -5 8 -7 18 -4 11 4 8 -1 -8 -14 -16 -13 -27 -17 -31 -10 -4 6
-12 7 -19 3 -7 -4 -16 -2 -21 6 -6 11 -14 11 -42 1 -18 -7 -43 -12 -55 -12
-12 0 -22 -4 -22 -10 0 -14 66 -23 121 -17 30 4 61 1 81 -7 18 -7 41 -16 52
-20 18 -6 18 -7 1 -26 -10 -11 -24 -20 -31 -20 -6 0 -35 -25 -63 -56 -67 -73
-105 -85 -248 -79 -85 4 -111 2 -130 -10 -32 -21 -29 -33 10 -34 17 0 76 -3
131 -7 72 -4 105 -2 123 7 19 10 31 10 56 1 31 -12 38 -9 51 23 2 6 11 6 24
-2 18 -11 22 -9 32 20 11 29 13 30 21 12 8 -17 8 -15 4 7 -5 28 31 118 47 118
37 0 188 -111 188 -138 0 -10 -14 -34 -31 -55 -36 -43 -30 -48 15 -10 l31 26
3 -26 c2 -15 7 -27 11 -27 4 0 11 73 15 161 4 94 12 171 19 184 7 13 41 55 77
95 70 78 120 148 120 167 0 6 -8 14 -18 17 -13 4 -19 16 -19 36 0 28 1 29 14
10 16 -23 33 -26 33 -6 0 8 10 18 21 21 16 5 18 9 9 15 -7 4 -13 19 -12 34 0
15 -6 26 -14 26 -8 0 -14 5 -14 10 0 6 6 10 13 10 9 0 8 3 -2 9 -11 7 -11 10
0 15 11 5 11 7 2 12 -18 8 -16 27 2 20 8 -3 15 -1 15 4 0 5 -8 11 -17 13 -16
4 -16 5 -2 6 19 1 35 34 20 39 -26 9 -7 18 34 18 36 1 45 -3 45 -17 0 -12 27
-31 87 -61 87 -43 87 -43 203 -44 71 0 121 4 130 11 8 6 33 17 55 24 67 23
129 54 153 78 13 13 28 21 33 18 5 -4 9 -2 9 4 0 5 17 19 38 32 53 32 114 98
146 160 16 32 25 43 22 27 -13 -57 -7 -225 9 -287 13 -52 14 -73 5 -119 -17
-85 -69 -209 -99 -235 -35 -31 -169 -174 -204 -217 -15 -19 -54 -62 -86 -95
-32 -33 -72 -79 -89 -103 -17 -24 -42 -52 -57 -64 -14 -11 -24 -22 -21 -25 12
-12 65 30 101 80 46 65 96 93 149 84 34 -5 36 -4 78 61 24 37 45 70 46 75 2 4
-15 7 -37 7 -23 0 -41 2 -41 4 0 2 37 43 83 90 81 84 115 110 84 62 -15 -22
-15 -25 -1 -30 9 -3 24 -6 35 -6 10 0 19 -4 19 -9 0 -5 9 -11 19 -14 27 -7 16
20 -12 29 -31 10 -47 29 -37 45 15 24 76 -14 109 -68 24 -38 44 -55 98 -83 37
-19 70 -38 71 -42 2 -5 10 -8 18 -8 16 0 19 -36 4 -45 -5 -3 -10 -1 -10 6 0 7
-2 10 -5 8 -2 -3 -2 -15 2 -28 3 -12 9 -18 12 -12 9 14 134 -30 211 -75 108
-63 156 -75 288 -72 65 2 138 -1 165 -6 31 -5 47 -5 47 2 0 15 -114 32 -213
32 -47 0 -88 4 -91 9 -3 5 -15 7 -25 4 -11 -3 -34 2 -53 10 -18 9 -42 17 -53
19 -11 2 -24 13 -30 25 -6 15 -16 21 -26 18 -9 -3 -27 4 -41 15 -14 11 -49 25
-78 31 -36 8 -50 15 -46 24 3 8 1 15 -3 17 -5 2 -12 14 -16 26 -6 22 -5 23 17
17 12 -4 26 -12 29 -17 4 -7 8 -7 10 -1 6 15 95 -10 91 -26 -1 -8 6 -12 20
-10 13 1 37 -4 53 -11 17 -7 34 -14 38 -14 4 -1 19 -11 31 -24 21 -19 25 -20
30 -6 5 13 9 14 21 4 10 -9 15 -9 15 -1 0 6 5 11 10 11 6 0 10 -10 10 -22 0
-20 1 -20 13 -4 10 14 30 17 107 18 105 2 102 3 -104 32 -80 12 -133 27 -202
56 -52 22 -102 40 -111 41 -10 0 -34 6 -53 13 -34 13 -35 14 -35 69 0 32 2 57
5 57 3 0 43 -21 89 -45 55 -28 89 -41 96 -35 6 5 47 22 90 39 74 28 78 36 15
31 -14 -1 -33 -6 -42 -11 -12 -6 -18 -6 -18 1 0 5 -9 10 -20 10 -11 0 -20 5
-20 11 0 6 -12 3 -27 -6 -26 -15 -31 -15 -63 0 -73 34 -86 43 -68 50 10 4 22
4 27 0 7 -3 8 0 5 9 -3 9 -10 16 -15 16 -5 0 -9 4 -9 10 0 5 19 0 43 -10 29
-13 43 -16 46 -8 2 7 -1 14 -7 16 -7 2 -12 11 -13 20 0 11 -2 12 -6 5 -2 -7
-11 -13 -19 -13 -20 0 -7 19 20 30 14 5 27 3 39 -8 15 -14 18 -14 15 -2 -3 13
-20 27 -102 82 -80 54 -101 77 -140 153 -22 44 -56 96 -76 115 -20 19 -49 56
-64 83 -25 42 -27 53 -20 95 4 26 7 51 6 55 -1 4 9 56 23 114 14 58 24 111 22
117 -7 18 32 86 49 86 8 0 31 -7 52 -15 24 -10 38 -12 40 -5 2 5 10 10 18 10
8 0 14 4 14 8 0 13 31 47 55 60 11 6 14 12 8 12 -7 0 -13 5 -13 11 0 5 4 8 8
5 5 -3 7 7 5 22 -2 15 7 64 20 110 17 59 24 107 24 170 l0 87 -7 -75 c-3 -41
-17 -102 -29 -135 -13 -33 -27 -76 -31 -95 -23 -98 -31 -117 -55 -137 -32 -28
-61 -29 -98 -4 -23 15 -25 20 -13 24 10 4 16 19 16 42 0 40 28 75 61 75 11 0
17 5 14 10 -4 6 -11 8 -16 5 -5 -4 -9 3 -9 14 0 28 -18 27 -22 -1 -2 -13 -11
-24 -22 -26 -17 -4 -18 -3 -2 19 9 13 16 34 16 46 0 13 5 22 12 21 7 -2 14 7
16 20 4 26 17 29 31 5 10 -17 10 -17 11 0 0 11 -9 21 -20 24 -32 9 -23 40 26
89 32 31 53 44 65 41 15 -4 19 0 19 19 0 13 -3 24 -7 24 -10 0 -76 -52 -100
-80 -17 -19 -22 -21 -23 -9 -1 78 117 167 149 112 6 -10 11 -13 11 -7 0 15
-34 44 -52 44 -8 0 -27 9 -41 20 -27 22 -53 114 -60 215 -2 28 -9 60 -15 72
-7 12 -13 33 -14 47 -1 15 -5 26 -9 26 -3 0 -11 18 -18 40 -10 33 -17 41 -49
50 -20 5 -48 10 -62 10 -15 0 -31 5 -38 12 -9 9 -17 9 -34 0 -13 -6 -35 -11
-50 -10 -21 0 -27 6 -32 32 -6 31 -48 86 -66 86 -25 0 -17 -25 19 -60 24 -24
38 -45 35 -54 -6 -16 30 -41 46 -31 6 4 7 -1 3 -11 -6 -15 -1 -14 30 5 31 19
40 21 53 10 8 -7 13 -18 10 -26 -4 -11 -1 -10 17 1 12 8 35 12 52 9 25 -4 34
-13 47 -46 19 -47 40 -145 34 -155 -2 -4 2 -36 10 -72 7 -36 14 -84 14 -107 0
-43 0 -43 -36 -43 -31 0 -35 3 -29 20 4 13 -2 31 -15 50 -38 53 -49 34 -17
-27 9 -18 17 -47 17 -65 -1 -44 -23 -144 -43 -191 -18 -43 -55 -93 -65 -90 -4
2 -23 -3 -42 -9 -50 -17 -195 -15 -260 5 -65 19 -89 42 -123 117 -30 65 -30
65 -28 155 1 78 10 99 34 89 9 -3 15 -10 12 -14 -3 -4 2 -10 10 -13 9 -4 12
-1 9 7 -3 8 -1 17 4 20 6 3 8 16 5 27 -5 19 -4 20 15 10 12 -6 26 -20 32 -31
7 -12 16 -17 27 -13 11 4 14 2 11 -8 -3 -8 -11 -14 -19 -14 -25 0 -22 -33 3
-37 20 -3 16 -7 -25 -27 -27 -13 -45 -27 -40 -32 4 -4 31 -10 58 -13 42 -5 46
-4 28 5 -30 16 -29 27 2 41 29 13 30 12 39 -24 4 -19 2 -28 -6 -29 -7 -1 14
-5 47 -10 60 -8 76 -2 88 34 2 6 11 7 23 3 18 -7 18 -8 -6 -28 -20 -16 -21
-18 -5 -12 11 4 55 8 97 8 42 1 80 4 84 9 4 4 -4 8 -17 8 -58 3 -87 10 -140
34 -44 20 -67 24 -97 19 -25 -4 -42 -2 -46 5 -4 6 -16 11 -27 11 -10 0 -19 4
-19 10 0 12 45 24 59 15 6 -3 11 -2 11 4 0 5 -14 12 -31 16 -56 13 -26 30 52
30 l74 0 -3 -37 c-4 -40 7 -48 28 -23 7 8 9 23 5 36 -7 21 -5 22 31 15 22 -4
48 -8 58 -7 25 0 41 16 18 18 -56 5 -104 18 -109 30 -9 23 3 25 59 11 45 -12
57 -12 67 -1 9 10 9 13 -2 13 -8 0 -20 7 -27 15 -8 10 -21 13 -33 9 -13 -4
-17 -2 -13 5 5 7 -3 11 -21 10 -25 0 -26 -1 -8 -9 15 -6 9 -9 -27 -9 -25 -1
-48 3 -50 9 -2 6 -24 7 -56 3 -29 -3 -49 -9 -44 -12 5 -3 12 -13 15 -21 4 -12
6 -11 6 3 1 15 7 16 44 11 53 -8 59 -14 41 -38 -8 -11 -14 -16 -14 -10 0 10
-67 11 -77 0 -22 -22 -64 23 -44 47 14 17 -79 16 -97 0 -7 -7 -20 -13 -27 -13
-18 0 -75 -49 -75 -65 0 -18 -52 -26 -96 -13 -21 5 -56 8 -77 5 -30 -4 -37 -2
-33 9 7 19 -31 107 -44 99 -6 -3 -14 4 -20 17 l-9 23 -7 -22 c-6 -21 -8 -21
-27 -8 -12 8 -41 15 -65 15 -24 0 -41 4 -38 8 7 11 -83 32 -138 32 -33 0 -52
-8 -95 -40 -51 -38 -71 -48 -71 -33 0 3 7 29 15 57 8 28 22 78 31 111 22 82
74 234 90 266 28 55 128 119 187 119 18 0 37 4 43 10 5 5 18 11 29 13 11 2 31
7 45 11 14 4 46 2 70 -4 25 -7 66 -17 92 -23 31 -7 50 -17 54 -29 4 -13 12
-17 30 -14 23 5 25 3 19 -24 l-6 -28 55 28 c54 28 82 32 94 14 4 -6 15 -13 24
-17 12 -4 15 -12 11 -23 -5 -13 -3 -16 10 -11 9 3 17 2 17 -3 0 -6 9 -19 20
-30 18 -18 21 -18 35 -3 9 8 14 22 11 30 -3 8 -6 17 -6 21 0 3 -6 -3 -14 -14
-12 -15 -17 -17 -27 -6 -11 10 -10 12 1 12 8 0 -5 14 -28 31 -23 17 -42 35
-42 40 0 5 -29 6 -69 3 -61 -6 -73 -4 -99 15 -17 11 -37 21 -45 21 -9 0 -18 4
-21 9 -7 10 -80 28 -143 36 -24 3 -62 -1 -85 -9 -24 -8 -68 -19 -98 -26 -30
-7 -65 -18 -77 -26 -12 -8 -29 -11 -39 -7 -13 5 -15 2 -9 -17 6 -18 4 -22 -8
-17 -14 5 -47 -20 -47 -37 0 -4 -10 -16 -22 -27 -20 -17 -21 -18 -3 -12 17 6
18 5 5 -9 -8 -9 -18 -14 -22 -12 -4 2 -10 -6 -14 -18 -4 -13 -2 -24 4 -26 6
-2 2 -20 -10 -44 -11 -22 -21 -54 -24 -70 -2 -16 -10 -43 -18 -59 -8 -17 -10
-31 -5 -35 5 -3 7 -10 3 -15 -3 -5 -10 -6 -16 -3 -6 4 -8 -1 -4 -14 4 -12 1
-26 -8 -35 -14 -14 -23 -47 -25 -92 -1 -15 -3 -17 -10 -6 -7 11 -11 10 -20 -5
-10 -18 -10 -18 -11 -1 0 10 7 25 15 33 19 19 19 39 0 58 -19 18 -21 43 -2 28
9 -8 12 10 11 86 -1 54 5 132 12 174 14 81 65 198 87 198 8 0 14 14 15 34 1
19 9 56 17 82 18 59 13 67 -14 23z m184 -734 c1 -16 4 -29 8 -28 4 1 21 5 38
8 24 5 30 11 26 26 -4 16 0 19 31 19 49 0 142 -44 143 -67 1 -10 2 -31 4 -48
3 -44 -30 -174 -57 -224 -34 -64 -69 -85 -152 -90 -79 -4 -185 12 -235 37 -72
36 -87 87 -64 230 5 34 6 62 3 62 -10 0 -20 -53 -20 -104 -1 -34 -2 -38 -11
-23 -7 12 -8 44 -4 89 6 60 12 75 37 99 28 29 71 38 83 19 3 -5 14 -10 23 -9
11 0 12 3 5 6 -16 6 -17 23 -2 23 6 0 17 -7 25 -15 24 -23 53 -20 47 6 -5 18
-2 20 33 17 36 -3 39 -5 39 -33z m1181 -146 c7 -12 -15 -31 -28 -23 -4 3 -8
12 -8 20 0 17 26 19 36 3z m-196 -1084 c7 -8 17 -15 22 -15 15 0 38 -27 30
-35 -4 -4 0 -5 8 -3 8 2 14 -2 13 -9 -2 -7 3 -10 11 -7 8 3 19 -3 25 -15 10
-18 9 -20 -6 -14 -15 5 -15 3 3 -18 12 -13 19 -30 17 -36 -3 -7 3 -13 12 -13
11 0 15 -5 12 -15 -4 -8 -2 -17 3 -20 17 -11 50 -97 50 -131 0 -19 3 -34 8
-34 11 0 33 53 23 59 -10 7 -31 46 -31 58 0 4 5 0 11 -10 6 -9 14 -15 19 -12
5 3 25 -6 45 -19 20 -14 46 -28 58 -32 22 -7 22 -7 2 -15 -11 -4 -39 -8 -62
-8 -41 -1 -43 -2 -43 -31 0 -19 -5 -30 -14 -30 -15 0 -66 55 -66 70 0 34 -105
110 -151 110 -16 0 -20 4 -15 17 16 42 17 100 2 143 -25 71 -18 103 14 65z
m-1110 -265 c0 -6 -7 -13 -15 -17 -14 -5 -14 -8 -2 -22 29 -33 30 -59 3 -86
-14 -14 -26 -31 -26 -38 0 -7 -9 -27 -21 -46 l-20 -34 -34 51 c-19 27 -40 52
-47 55 -10 3 -10 9 -2 23 15 26 31 28 39 4 4 -12 9 -19 12 -17 2 3 0 14 -6 25
-8 15 -6 23 10 38 21 19 21 19 19 -1 -4 -32 -1 -45 10 -45 6 0 10 7 10 15 0
17 17 20 22 4 2 -6 3 7 3 29 0 38 18 72 36 72 5 0 9 -5 9 -10z m1171 -30 c15
-9 17 -15 9 -30 -5 -10 -7 -20 -2 -22 4 -2 14 -16 22 -32 8 -16 22 -32 30 -36
8 -4 25 -12 37 -18 17 -9 22 -8 27 4 3 8 10 12 16 9 13 -8 13 -45 0 -45 -5 0
-7 -7 -4 -15 4 -8 1 -15 -6 -15 -10 0 -10 -3 0 -15 6 -8 8 -20 4 -27 -4 -7 -7
-28 -6 -46 2 -30 0 -33 -15 -27 -10 4 -24 8 -32 8 -9 0 -8 5 5 14 19 14 19 15
0 28 -13 10 -23 11 -31 5 -9 -8 -12 -3 -12 17 0 15 -6 29 -12 31 -6 2 -11 10
-11 18 0 7 -6 11 -14 8 -9 -3 -12 -12 -9 -21 4 -10 2 -14 -7 -11 -24 8 -21 24
5 36 14 6 25 16 25 22 0 5 8 10 18 10 13 0 14 2 3 9 -7 5 -10 14 -7 20 4 6 0
11 -8 11 -14 0 -20 12 -17 33 0 4 -3 7 -9 7 -5 0 -10 -3 -11 -7 0 -5 -2 -18
-5 -30 -3 -16 1 -23 11 -23 8 0 15 -7 15 -16 0 -8 -4 -12 -10 -9 -5 3 -19 1
-30 -5 -27 -14 -45 -3 -28 17 10 12 8 18 -11 32 -19 15 -21 21 -12 44 6 15 15
38 21 52 10 27 29 31 61 15z m-1542 -317 c1 -7 -8 -13 -20 -13 -15 0 -19 5
-15 16 3 8 2 12 -4 9 -15 -10 -12 3 8 25 l17 21 7 -23 c3 -13 6 -29 7 -35z
m1181 -93 c-10 -19 -40 -28 -40 -12 0 13 23 32 37 32 11 0 11 -5 3 -20z"/>
<path d="M1250 2124 c-11 -13 -26 -14 -79 -10 -36 4 -72 3 -79 -2 -8 -6 17
-11 69 -15 46 -4 87 -12 93 -18 8 -9 8 -10 0 -6 -19 11 -198 -10 -253 -29 -59
-21 -68 -39 -15 -30 25 5 43 2 60 -9 14 -9 31 -14 37 -12 7 3 -1 10 -18 17
-29 11 -29 12 -11 26 30 21 43 17 50 -16 5 -28 9 -30 49 -30 43 0 67 13 67 37
0 7 -7 13 -15 13 -20 0 -19 16 1 24 24 9 66 -4 60 -20 -3 -7 -1 -16 5 -19 15
-10 0 -25 -26 -25 -13 0 -27 -4 -30 -10 -9 -14 30 -12 68 3 18 8 39 12 47 10
11 -3 10 -1 -2 10 -22 17 -23 31 -3 23 10 -3 15 1 15 13 0 14 -6 17 -29 13
-22 -3 -29 1 -34 17 -6 26 9 37 29 20 19 -16 32 -2 13 15 -24 23 -55 28 -69
10z"/>
<path d="M1010 2093 c-28 -13 -31 -17 -16 -20 10 -3 23 0 29 6 6 6 19 11 30
11 10 0 15 5 12 10 -8 13 -13 12 -55 -7z"/>
<path d="M1220 1944 c-25 -11 -53 -14 -97 -10 -67 6 -87 -9 -28 -20 58 -11
195 16 195 38 0 13 -32 9 -70 -8z"/>
<path d="M2140 831 c0 -13 29 -41 41 -41 6 0 2 11 -8 25 -19 25 -33 32 -33 16z"/>
<path d="M2217 481 c-17 -6 -17 -8 -3 -20 9 -7 14 -17 11 -21 -3 -4 2 -10 9
-13 16 -6 25 17 18 46 -5 18 -8 19 -35 8z"/>
<path d="M1830 2907 c-1 -30 72 -55 101 -35 11 7 9 8 -4 4 -10 -3 -27 -1 -38
4 -14 8 -19 7 -19 -1 0 -6 -9 -1 -20 12 -10 13 -19 20 -20 16z"/>
<path d="M957 2858 c-11 -78 -12 -83 -17 -88 -42 -39 -82 -105 -85 -137 -1
-21 -6 -47 -10 -58 -4 -11 2 -5 14 13 12 18 21 41 21 52 0 10 7 25 15 34 8 8
15 20 15 26 0 6 4 9 9 6 4 -3 16 3 26 14 10 11 15 20 11 20 -5 0 5 15 21 33
36 41 39 92 7 114 -20 13 -22 12 -27 -29z"/>
<path d="M2407 2483 c-12 -11 -8 -20 16 -30 18 -9 24 -8 24 2 0 8 -5 13 -11
12 -6 -1 -10 4 -8 11 2 13 -10 16 -21 5z"/>
<path d="M2045 2040 c-3 -5 -19 -10 -36 -10 -26 0 -43 -18 -19 -21 6 -1 16 -2
23 -3 6 -1 18 2 25 7 8 7 12 4 12 -9 0 -14 3 -15 8 -6 5 7 16 10 25 6 10 -3
17 -1 17 5 0 6 -11 11 -25 11 -18 0 -23 4 -19 15 7 17 -1 20 -11 5z"/>
<path d="M1374 1923 c-3 -10 -12 -33 -20 -52 -20 -45 -11 -50 14 -8 27 47 36
77 22 77 -6 0 -13 -8 -16 -17z"/>
<path d="M1720 1921 c0 -13 37 -24 50 -16 6 4 8 11 5 16 -8 12 -55 12 -55 0z"/>
<path d="M1778 1889 c-11 -7 78 -29 117 -29 13 0 27 5 30 10 3 6 15 10 26 10
10 0 19 3 19 8 0 9 -178 10 -192 1z"/>
<path d="M2347 1826 c-10 -38 -16 -70 -13 -73 8 -8 38 96 34 119 -2 15 -10 -2
-21 -46z"/>
<path d="M814 1813 c9 -39 17 -102 10 -80 -3 9 -11 17 -19 17 -20 0 -6 -37 16
-43 18 -5 18 -7 4 -41 -9 -20 -11 -36 -6 -36 5 0 12 6 14 13 4 9 8 8 16 -3 17
-24 13 -40 -11 -40 -19 0 -20 -1 -6 -17 9 -10 19 -33 23 -52 11 -50 25 -18 20
43 -7 66 -24 172 -37 224 -11 46 -34 60 -24 15z"/>
<path d="M1279 1493 c-18 -24 -90 -47 -100 -32 -3 6 -9 1 -12 -11 -4 -17 -12
-21 -39 -20 -47 3 -56 0 -33 -10 18 -7 16 -10 -17 -24 -37 -16 -47 -37 -30
-62 12 -17 42 -25 42 -10 0 7 11 23 25 36 16 15 23 30 19 42 -3 10 -1 18 5 18
6 0 11 -4 11 -9 0 -14 171 17 188 33 2 3 14 0 25 -5 21 -12 37 1 37 30 0 11
-3 11 -15 1 -12 -10 -15 -10 -15 3 0 15 -28 37 -48 37 -5 0 -14 -12 -21 -26
-6 -15 -14 -24 -18 -21 -3 4 0 13 7 22 7 9 10 18 7 21 -3 3 -11 -3 -18 -13z"/>
<path d="M860 1480 c0 -4 3 -10 7 -13 3 -4 8 -23 10 -43 4 -36 40 -142 53
-157 8 -9 -15 87 -27 113 -7 16 -9 29 -12 76 0 20 -6 31 -16 31 -8 0 -15 -3
-15 -7z"/>
<path d="M1510 1479 c0 -7 -11 -9 -29 -6 -27 6 -29 5 -22 -21 7 -24 12 -27 55
-29 48 -2 106 -21 106 -35 0 -5 7 -8 15 -8 24 0 17 26 -12 45 -14 10 -38 30
-51 44 l-24 26 7 -35 c7 -31 6 -33 -9 -21 -9 7 -16 22 -16 32 0 11 -4 19 -10
19 -5 0 -10 -5 -10 -11z"/>
<path d="M1650 1426 c22 -30 43 -47 69 -54 20 -7 48 -23 61 -37 13 -14 29 -25
36 -25 7 0 15 -6 18 -12 3 -10 9 -8 19 5 13 16 13 23 0 57 -9 22 -22 39 -32
39 -56 3 -74 8 -87 25 -8 11 -14 15 -14 9 0 -16 -47 -3 -66 18 -32 36 -35 19
-4 -25z"/>
<path d="M1425 1380 c-17 -7 -16 -9 10 -9 17 0 37 4 45 9 12 8 10 10 -10 9
-14 0 -34 -4 -45 -9z"/>
<path d="M1145 1350 c-4 -6 5 -14 19 -20 14 -5 26 -14 26 -19 0 -5 14 -7 31
-4 16 2 62 -3 102 -12 58 -13 100 -15 221 -10 106 5 146 4 142 -4 -9 -15 -5
-14 40 6 l39 17 -40 7 c-22 4 -48 5 -59 2 -12 -3 -16 -1 -12 6 4 6 3 11 -3 11
-5 0 -12 -4 -15 -9 -5 -8 -84 -13 -211 -13 -54 -1 -204 24 -247 41 -17 7 -29
7 -33 1z"/>
<path d="M1280 1236 c0 -17 21 -26 46 -21 11 2 27 4 37 4 9 1 17 5 17 9 0 4
-16 7 -35 7 -20 -1 -38 2 -41 7 -8 13 -24 9 -24 -6z"/>
<path d="M940 1235 c0 -36 88 -188 129 -222 40 -34 57 -27 22 8 -39 39 -81 99
-115 167 -23 46 -36 63 -36 47z"/>
<path d="M1545 1230 c-4 -6 -10 -8 -15 -5 -4 3 -11 -2 -14 -11 -5 -14 -1 -16
25 -10 17 3 39 6 47 6 13 0 12 3 -4 15 -23 17 -31 18 -39 5z"/>
<path d="M1297 1164 c14 -22 68 -42 80 -30 3 3 12 -2 20 -10 11 -11 32 -14 76
-12 55 3 61 5 62 26 2 21 -2 22 -59 22 -34 1 -91 7 -128 14 l-66 13 15 -23z"/>
<path d="M1800 846 c0 -13 -5 -17 -20 -13 -11 3 -20 1 -20 -4 0 -5 7 -9 15 -9
8 0 15 -4 15 -10 0 -5 -5 -10 -11 -10 -5 0 -7 -5 -3 -12 5 -8 11 -4 18 13 6
13 15 27 21 31 6 5 6 11 -3 20 -9 9 -12 8 -12 -6z"/>
<path d="M1362 705 c-19 -15 -33 -21 -37 -15 -3 5 -16 10 -28 10 -20 0 -19 -2
6 -15 30 -15 67 -6 67 17 0 7 4 7 13 0 10 -8 13 -6 14 9 2 24 1 24 -35 -6z"/>
<path d="M1593 716 c3 -7 0 -19 -6 -25 -8 -8 -7 -11 4 -11 9 0 18 3 21 6 9 8
-3 44 -14 44 -6 0 -8 -6 -5 -14z"/>
<path d="M1680 707 c0 -9 -7 -17 -16 -17 -8 0 -12 -5 -8 -11 4 -8 9 -8 17 0
18 18 29 12 22 -11 -5 -20 -4 -21 5 -5 8 13 7 22 -4 39 -13 19 -16 19 -16 5z"/>
<path d="M1440 690 c-9 -16 -6 -25 14 -45 23 -23 26 -23 54 -10 16 8 34 26 40
39 9 21 8 23 -9 19 -11 -3 -22 -10 -26 -16 -3 -6 -1 -7 5 -3 7 4 12 1 12 -8 0
-23 -58 -25 -72 -3 -12 19 -9 27 8 27 8 0 12 5 9 10 -10 16 -23 12 -35 -10z"/>
<path d="M1397 630 c11 -20 21 -26 27 -20 16 16 29 12 24 -8 -4 -13 1 -18 16
-20 11 0 16 2 10 6 -6 4 -13 15 -17 25 -4 10 -17 17 -32 17 -16 0 -25 6 -25
15 0 8 -5 15 -11 15 -5 0 -2 -13 8 -30z"/>
<path d="M1608 653 c-10 -3 -18 -11 -18 -19 0 -18 10 -17 34 1 13 10 23 12 32
5 8 -7 13 -7 17 2 5 13 -31 19 -65 11z"/>
<path d="M1527 603 c5 -12 2 -15 -10 -10 -9 3 -19 1 -23 -5 -4 -7 -3 -8 4 -4
7 4 12 3 12 -3 0 -5 -8 -12 -17 -14 -15 -4 -14 -5 3 -6 24 -1 59 33 49 48 -10
17 -25 13 -18 -6z"/>
<path d="M586 474 c-15 -14 -26 -27 -23 -30 9 -10 96 18 101 33 5 11 2 13 -10
9 -9 -4 -22 -2 -28 3 -7 6 -21 1 -40 -15z"/>
<path d="M2063 353 c29 -51 48 -73 72 -84 20 -10 20 -10 1 5 -28 22 -13 31 18
11 14 -9 31 -15 38 -12 7 2 25 -2 41 -10 15 -7 27 -10 27 -6 0 10 -49 33 -70
33 -22 0 -110 69 -110 86 0 8 -9 14 -20 14 -19 0 -19 -1 3 -37z"/>
<path d="M1902 350 l-23 -30 24 0 c30 0 47 -14 88 -75 52 -79 60 -84 146 -89
27 -2 57 -7 68 -13 28 -15 50 -6 34 14 -10 12 -10 16 1 23 12 7 11 10 -3 16
-9 3 -26 4 -37 1 -11 -3 -18 -2 -15 3 2 4 -13 10 -34 13 -49 6 -98 42 -122 88
-17 34 -72 79 -96 79 -5 0 -19 -13 -31 -30z m158 -119 c0 -5 14 -14 30 -21 41
-17 45 -27 12 -25 -30 2 -74 33 -66 47 7 11 24 10 24 -1z"/>
<path d="M2515 355 c17 -14 160 -85 171 -85 2 0 4 5 4 12 0 6 -3 9 -6 5 -6 -5
-19 1 -104 51 -19 11 -46 23 -60 26 -24 7 -25 7 -5 -9z"/>
<path d="M2760 296 c0 -22 13 -26 46 -16 l29 8 -33 1 c-19 1 -31 5 -27 11 3 6
1 10 -4 10 -6 0 -11 -6 -11 -14z"/>
<path d="M2258 158 c-1 -18 -2 -41 -1 -50 0 -10 -4 -18 -9 -18 -4 0 -8 -7 -8
-16 0 -8 5 -12 10 -9 15 9 12 -4 -5 -21 -8 -9 -15 -22 -15 -30 0 -8 7 -14 15
-14 8 0 15 6 15 13 0 9 2 9 9 -1 5 -8 9 27 10 82 1 60 -2 96 -9 96 -5 0 -11
-15 -12 -32z"/>
<path d="M659 140 c23 -20 23 -21 5 -36 -10 -9 -13 -13 -6 -9 6 3 12 0 12 -7
0 -7 -10 -18 -22 -23 -13 -6 -22 -21 -24 -38 -3 -34 19 -32 24 1 2 12 7 22 12
22 17 0 39 45 34 67 -3 11 -18 26 -32 32 l-27 11 24 -20z"/>
<path d="M1764 113 c-9 -16 -25 -35 -33 -43 -25 -23 -53 -70 -41 -70 5 0 22
18 36 40 15 22 31 40 36 40 15 0 50 -21 88 -52 25 -20 45 -28 75 -28 l40 0
-32 20 c-18 10 -43 35 -55 54 -22 33 -65 66 -86 66 -5 0 -18 -12 -28 -27z"/>
<path d="M707 50 c-16 -28 -24 -50 -19 -50 12 0 62 72 62 88 0 25 -16 11 -43
-38z"/>
<path d="M546 54 c-3 -9 -11 -12 -18 -8 -6 4 -3 -5 8 -19 23 -32 26 -32 41 -8
9 14 8 21 -7 34 -16 14 -19 14 -24 1z"/>
</g>
</svg>
